<?xml version="1.0" standalone="no"?><!DOCTYPE svg PUBLIC "-//W3C//DTD SVG 1.1//EN" "http://www.w3.org/Graphics/SVG/1.1/DTD/svg11.dtd"><svg class="icon" height="512" viewBox="0 0 1024 1024" version="1.1" xmlns="http://www.w3.org/2000/svg"><path d="M386.56 622.933V133.12c0-59.733-49.493-107.52-110.933-107.52S166.4 73.387 166.4 133.12v489.813c-49.493 34.133-78.507 90.453-78.507 150.187 0 102.4 85.333 184.32 189.44 184.32s189.44-83.627 189.44-184.32c-1.707-59.733-30.72-116.053-80.213-150.187zM275.627 916.48c-81.92 0-148.48-64.853-148.48-143.36 0-49.493 25.6-95.573 68.267-121.173l10.24-5.12v-512c0-37.547 30.72-66.56 68.267-66.56s68.267 30.72 68.267 66.56v512l10.24 5.12c42.667 27.307 68.267 71.68 68.267 121.173 3.413 78.507-63.147 143.36-145.067 143.36zM296.107 704.853v-404.48h-40.96v404.48c-30.72 8.533-52.907 35.84-52.907 68.267 0 39.253 32.427 71.68 73.387 71.68s73.387-32.427 73.387-71.68c0-32.427-22.187-59.733-52.907-68.267zM770.833 386.383c3.884 3.884 196.123 211.658 188.355 341.758 0 112.625-85.439 203.89-188.355 203.89-104.858 0-188.355-91.265-188.355-203.89-7.767-132.043 184.471-337.874 188.355-341.758 0-1.942 0-1.942 0 0 0-1.942 0-1.942 0 0 0-1.942 0-1.942 0 0 0-1.942 0-1.942 0 0z m161.171 339.816c7.767-112.625-161.17-300.98-161.17-300.98s-166.995 188.355-161.17 300.98c0 95.149 71.847 172.82 161.17 172.82 89.324 0 161.17-77.673 161.17-172.82zM648.5 732.024c0 73.789 54.371 132.043 122.334 132.043 56.313 0 104.858-46.604 118.45-102.915-29.127-23.301-99.033-17.476-99.033-17.476-56.313 0-104.858-27.185-133.985-54.371-3.884 13.593-7.767 29.127-7.767 42.72z" /></svg>